<?xml version="1.0" encoding="utf-8"?>
<!-- Generator: Adobe Illustrator 25.3.0, SVG Export Plug-In . SVG Version: 6.00 Build 0)  -->
<svg version="1.1" id="Layer_2" xmlns="http://www.w3.org/2000/svg" xmlns:xlink="http://www.w3.org/1999/xlink" x="0px" y="0px"
	 viewBox="0 0 300 300" style="enable-background:new 0 0 300 300;" xml:space="preserve">
<style type="text/css">
	.st0{fill:#881515;}
</style>
<path class="st0" d="M0,0v300h300V0H0z M293.8,155.8c-0.8,8.8-2.5,17.4-4.3,26c-0.9,4.5-2.1,9-3.3,13.5c-1.3,4.6-2.7,9.1-4.1,13.6
	c-1.1,3.3-2.2,6.7-3.6,9.9c-2.3,5.5-4.7,11.1-7.4,16.5c-2.2,4.5-4.8,8.9-7.4,13.1c-3.3,5.3-7,10.4-11.1,15.1
	c-4.5,5.2-9.4,10-14.9,14.1c-6.7,5-13.9,9.1-21.9,11.7c-6.6,2.2-13.4,3.3-20.4,2.9c-4.4-0.2-8.6-1.2-12.7-2.6
	c-7-2.4-13.5-5.9-19.7-10c-4.1-2.8-8.1-5.8-11.8-9.1c-0.2-0.2-0.5-0.3-0.8-0.6c-1.6,1.3-3.1,2.6-4.7,3.9c-7.4,6-15.3,10.9-24.1,14.6
	c-10.8,4.5-21.9,5-33.2,1.9c-8.3-2.3-15.9-6.1-23-11.1c-5.6-4-10.6-8.5-15.2-13.6c-4.1-4.6-7.9-9.4-11.3-14.5
	c-2.8-4.2-5.3-8.5-7.7-13c-2.7-5.1-5.1-10.3-7.3-15.5c-3-7.2-5.6-14.5-7.7-22c-1.3-4.6-2.5-9.3-3.7-13.9c-1.8-6.6-2.8-13.3-4-20
	c-1.7-8.8-2.2-17.7-2-26.6c0.1-5,0.4-10.1,1.5-15c1-4.6,2.2-9.2,3.7-13.7c1.7-5.2,4.3-10.1,7.3-14.7c3.1-4.6,6.7-8.9,11-12.5
	c6.9-6,14.8-10.3,23.5-13.1c9.4-3,19.1-4.2,29-3.9c13.1,0.4,25.6,3.3,37.4,9.1c6.7,3.3,12.8,7.3,18.5,12.1c0.2,0.1,0.4,0.3,0.8,0.6
	c0.3-2.2,0.6-4.2,0.9-6.1c0.8-4.7,1.5-9.4,2.6-14c1.9-7.7,4.5-15.1,7.8-22.3c1.9-4.3,4.1-8.4,6.4-12.5c3.5-6.1,7.5-11.9,11.9-17.3
	c1.7-2,3.5-3.9,5.3-5.9c7.9,3.8,15.7,7.5,23.5,11.2c-1.8,1.5-3.4,2.8-5,4.2c-1.7,1.5-3.4,3.1-4.9,4.7c-3.4,3.7-6.5,7.7-9.2,11.9
	c-3.4,5.3-6.4,10.9-8.6,16.9c-1.3,3.5-2.4,7.1-3.5,10.6c-1.7,5.4-2.5,10.9-3.1,16.5c0,0.2,0,0.3,0,0.8c1.1-0.8,2.2-1.5,3.1-2.3
	c6.1-4.7,12.7-8.4,19.7-11.4c7-2.9,14.2-4.9,21.6-6c7.4-1.1,14.8-1.3,22.3-0.6c11.6,1.1,22.5,4.2,32.5,10.3
	c5.6,3.5,10.6,7.7,14.9,12.7c3,3.5,5.6,7.4,7.8,11.4c3.8,7,6.1,14.5,7.7,22.3C294.7,134.7,294.8,145.2,293.8,155.8z"/>
</svg>
